<svg width="60" height="60" viewBox="0 0 60 60" fill="none" xmlns="http://www.w3.org/2000/svg">
<mask id="mask0_3_328" style="mask-type:alpha" maskUnits="userSpaceOnUse" x="0" y="0" width="60" height="60">
<rect width="60" height="60" fill="#FF0000"/>
</mask>
<g mask="url(#mask0_3_328)">
<path d="M22.3233 6.67655C27.2228 8.94494 32.9344 8.94493 37.8339 6.67654C44.7994 3.45161 50.8032 2.99898 53.9019 6.09766C57.0006 9.19638 56.5475 15.2001 53.3223 22.1655C51.0537 27.065 51.0537 32.7768 53.3223 37.6762C56.5476 44.6417 57.0006 50.6454 53.9019 53.7441C50.8031 56.8428 44.7994 56.3898 37.834 53.1646C32.9345 50.896 27.2227 50.8959 22.3233 53.1646C15.3578 56.3898 9.35409 56.8429 6.25537 53.7441C3.15669 50.6455 3.60932 44.6417 6.83425 37.6762C9.10265 32.7767 9.10265 27.0651 6.83427 22.1656C3.6094 15.2002 3.15678 9.19634 6.25537 6.09766C9.35404 2.99899 15.3579 3.45164 22.3233 6.67655Z" fill="#EFEFEF"/>
</g>
</svg>
