<svg width="80" height="80" viewBox="0 0 80 80" fill="none" xmlns="http://www.w3.org/2000/svg">
<mask id="mask0_86_622" style="mask-type:alpha" maskUnits="userSpaceOnUse" x="0" y="0" width="80" height="80">
<path d="M0 12C0 5.37258 5.37258 0 12 0H68C74.6274 0 80 5.37258 80 12V68C80 74.6274 74.6274 80 68 80H12C5.37258 80 0 74.6274 0 68V12Z" fill="#F8F8F8"/>
</mask>
<g mask="url(#mask0_86_622)">
<path d="M41.0094 39.7277C41.0094 45.6534 37.8732 50.4565 34.0047 50.4565C30.1363 50.4565 27 45.6534 27 39.7277C27 38.2999 27.182 36.9372 27.5125 35.6925C28.5539 31.7671 31.0688 29 34.0047 29C36.9406 29 39.4555 31.7671 40.4969 35.6925C40.8274 36.9382 41.0094 38.3009 41.0094 39.7277Z" fill="white"/>
<path d="M33.2434 32.3457C30.8912 32.3457 28.9 34.7132 28.2298 37.9766L32.9444 39.4115L28 40.9165C28.1759 45.1186 30.4559 48.444 33.2444 48.444C36.0328 48.444 38.5 44.8399 38.5 40.3948C38.5 35.9498 36.1467 32.3457 33.2444 32.3457H33.2434Z" fill="#1A1A1A"/>
<path d="M40.497 35.6925H27.5127C28.554 31.7671 31.0689 29 34.0049 29C36.9408 29 39.4557 31.7671 40.497 35.6925Z" fill="#E6C58D"/>
<path d="M53.0011 39.7277C53.0011 45.6534 49.8649 50.4565 45.9964 50.4565C42.128 50.4565 38.9917 45.6534 38.9917 39.7277C38.9917 38.2999 39.1737 36.9372 39.5042 35.6925C40.5456 31.7671 43.0605 29 45.9964 29C48.9323 29 51.4472 31.7671 52.4886 35.6925C52.8191 36.9382 53.0011 38.3009 53.0011 39.7277Z" fill="white"/>
<path d="M45.2331 32.3457C42.8809 32.3457 40.8897 34.7132 40.2196 37.9766L44.9341 39.4115L39.9897 40.9165C40.1657 45.1186 42.4457 48.444 45.2341 48.444C48.0226 48.444 50.4897 44.8399 50.4897 40.3949C50.4897 35.9498 48.1365 32.3457 45.2341 32.3457H45.2331Z" fill="#1A1A1A"/>
<path d="M52.4887 35.6925H39.5044C40.5457 31.7671 43.0606 29 45.9966 29C48.9325 29 51.4474 31.7671 52.4887 35.6925Z" fill="#E6C58D"/>
</g>
</svg>
