<svg width="80" height="80" viewBox="0 0 80 80" fill="none" xmlns="http://www.w3.org/2000/svg">
<mask id="mask0_86_621" style="mask-type:alpha" maskUnits="userSpaceOnUse" x="0" y="0" width="80" height="80">
<rect width="80" height="80" rx="12" fill="#F8F8F8"/>
</mask>
<g mask="url(#mask0_86_621)">
<path d="M41.2 39.9996C41.2 44.4184 37.7972 48 33.6 48C29.4028 48 26 44.4184 26 39.9996C26 38.9349 26.1975 37.9188 26.5561 36.9906C27.686 34.0634 30.4146 32 33.6 32C36.7854 32 39.514 34.0634 40.6439 36.9906C41.0025 37.9195 41.2 38.9357 41.2 39.9996Z" fill="white"/>
<path d="M54.8001 39.9996C54.8001 44.4184 51.3973 48 47.2001 48C43.0029 48 39.6001 44.4184 39.6001 39.9996C39.6001 38.9349 39.7976 37.9188 40.1562 36.9906C41.286 34.0634 44.0147 32 47.2001 32C50.3855 32 53.1141 34.0634 54.244 36.9906C54.6026 37.9195 54.8001 38.9357 54.8001 39.9996Z" fill="white"/>
<path d="M47.2002 35.2C48.274 35.2001 49.2577 35.5853 50.0215 36.2244C49.3972 36.4948 48.9601 37.1161 48.96 37.8397C48.96 38.8115 49.7479 39.6002 50.7197 39.6004C51.0376 39.6004 51.3354 39.5144 51.5928 39.367C51.5968 39.4442 51.5996 39.5222 51.5996 39.6004C51.5994 42.0302 49.6299 43.9996 47.2002 43.9998C44.7703 43.9998 42.8 42.0303 42.7998 39.6004C42.7998 37.1704 44.7701 35.2 47.2002 35.2ZM46 39.9998C45.5583 39.9999 45.2004 40.358 45.2002 40.7996C45.2002 41.2414 45.5582 41.6004 46 41.6004C46.4418 41.6004 46.7998 41.2415 46.7998 40.7996C46.7996 40.358 46.4417 39.9998 46 39.9998Z" fill="#1A1A1A"/>
<path d="M33.6001 35.2C34.6739 35.2001 35.6576 35.5853 36.4214 36.2244C35.7971 36.4948 35.36 37.1161 35.3599 37.8397C35.3599 38.8117 36.1486 39.6004 37.1206 39.6004C37.4383 39.6003 37.7354 39.5143 37.9927 39.367C37.9967 39.4442 37.9995 39.5222 37.9995 39.6004C37.9993 42.0302 36.0298 43.9996 33.6001 43.9998C31.1702 43.9998 29.1999 42.0303 29.1997 39.6004C29.1997 37.1704 31.17 35.2 33.6001 35.2ZM32.3999 39.9998C31.9583 39.9999 31.6003 40.358 31.6001 40.7996C31.6001 41.2414 31.9581 41.6003 32.3999 41.6004C32.8417 41.6004 33.1997 41.2415 33.1997 40.7996C33.1995 40.358 32.8416 39.9998 32.3999 39.9998Z" fill="#1A1A1A"/>
</g>
</svg>
