<svg width="60" height="60" viewBox="0 0 60 60" fill="none" xmlns="http://www.w3.org/2000/svg">
<mask id="mask0_3_333" style="mask-type:alpha" maskUnits="userSpaceOnUse" x="0" y="0" width="60" height="60">
<rect width="60" height="60" fill="#FF0000"/>
</mask>
<g mask="url(#mask0_3_333)">
<path d="M30 0C37.7665 0 44.0625 6.296 44.0625 14.0625V15.9375H45.9375C53.704 15.9375 60 22.2335 60 30C60 37.7665 53.704 44.0625 45.9375 44.0625H44.0625V45.9375C44.0625 53.704 37.7665 60 30 60C22.2335 60 15.9375 53.704 15.9375 45.9375V44.0625H14.0625C6.296 44.0625 1.07802e-06 37.7665 0 30C3.39485e-07 22.2335 6.296 15.9375 14.0625 15.9375H15.9375V14.0625C15.9375 6.296 22.2335 0 30 0Z" fill="#EFEFEF"/>
</g>
</svg>
