<svg width="60" height="60" viewBox="0 0 60 60" fill="none" xmlns="http://www.w3.org/2000/svg">
<mask id="mask0_3_349" style="mask-type:alpha" maskUnits="userSpaceOnUse" x="0" y="0" width="60" height="60">
<rect width="60" height="60" fill="#FF0000"/>
</mask>
<g mask="url(#mask0_3_349)">
<path d="M29.5293 10C31.8308 10 33.8725 12.8562 35.148 17.2654C36.1088 20.5867 40.5411 22.3611 43.4508 20.4936C48.2601 17.4069 52.4944 16.3455 54.3096 18.1602C55.9802 19.8308 55.2137 23.5511 52.6738 27.8831C51.1016 30.5645 52.4879 34.2555 55.3129 35.5521C57.9471 36.7611 59.5293 38.3104 59.5293 40C59.5293 40.0013 59.5293 40.0026 59.5293 40.0039C59.5289 40.1692 59.5293 40.3347 59.5293 40.5C59.5293 45.1944 46.3217 49 30.0293 49C13.7369 49 0.529297 45.1944 0.529297 40.5C0.529297 40.4454 0.527733 40.3908 0.52105 40.3366C0.507295 40.2251 0.5 40.1129 0.5 40C0.5 38.4109 1.86171 36.9457 4.15609 35.7709C6.87077 34.381 8.21337 30.8015 6.72345 28.1404C4.42898 24.0422 3.80203 20.528 5.42969 18.9004C7.17854 17.1516 11.1052 18.0056 15.594 20.7342C18.535 22.522 22.9265 20.7375 23.8632 17.4256C25.136 12.9255 27.2 10 29.5293 10Z" fill="#EFEFEF"/>
</g>
</svg>
