<svg width="80" height="80" viewBox="0 0 80 80" fill="none" xmlns="http://www.w3.org/2000/svg">
<mask id="mask0_86_554" style="mask-type:alpha" maskUnits="userSpaceOnUse" x="0" y="0" width="80" height="80">
<rect width="80" height="80" rx="12" fill="#F8F8F8"/>
</mask>
<g mask="url(#mask0_86_554)">
<path d="M40 10C43.1493 10 45.9561 14.3682 47.7891 21.1943C53.9123 17.6633 58.9869 16.5601 61.2139 18.7871C63.4403 21.0142 62.3353 26.0872 58.8047 32.21C65.6315 34.043 70 36.8505 70 40C70 43.1495 65.6314 45.9561 58.8047 47.7891C62.3357 53.9122 63.4405 58.9857 61.2139 61.2129C58.9868 63.4399 53.9125 62.3359 47.7891 58.8047C45.9561 65.6314 43.1495 70 40 70C36.8505 70 34.043 65.6315 32.21 58.8047C26.087 62.3354 21.014 63.4398 18.7871 61.2129C16.5603 58.9859 17.6635 53.9121 21.1943 47.7891C14.3682 45.9561 10 43.1493 10 40C10 36.8505 14.3685 34.043 21.1953 32.21C17.6647 26.0872 16.5604 21.0141 18.7871 18.7871C21.014 16.5603 26.0872 17.6639 32.21 21.1943C34.043 14.368 36.8506 10 40 10Z" fill="#EFEFEF"/>
</g>
</svg>
