<svg width="80" height="80" viewBox="0 0 80 80" fill="none" xmlns="http://www.w3.org/2000/svg">
<mask id="mask0_86_555" style="mask-type:alpha" maskUnits="userSpaceOnUse" x="0" y="0" width="80" height="80">
<rect width="80" height="80" rx="12" fill="#F8F8F8"/>
</mask>
<g mask="url(#mask0_86_555)">
<path d="M32.3233 16.6765C37.2228 18.9449 42.9344 18.9449 47.8339 16.6765C54.7993 13.4516 60.8032 12.999 63.9018 16.0976C67.0006 19.1964 66.5475 25.2001 63.3223 32.1655C61.0536 37.065 61.0536 42.7768 63.3223 47.6762C66.5475 54.6417 67.0006 60.6454 63.9018 63.7441C60.8031 66.8428 54.7994 66.3898 47.834 63.1646C42.9345 60.8959 37.2227 60.8959 32.3232 63.1645C25.3578 66.3898 19.3541 66.8428 16.2553 63.7441C13.1567 60.6454 13.6093 54.6416 16.8342 47.6762C19.1026 42.7767 19.1026 37.0651 16.8343 32.1656C13.6094 25.2001 13.1568 19.1963 16.2553 16.0976C19.354 12.999 25.3578 13.4516 32.3233 16.6765Z" fill="#EFEFEF"/>
</g>
</svg>
