<svg width="60" height="60" viewBox="0 0 60 60" fill="none" xmlns="http://www.w3.org/2000/svg">
<mask id="mask0_3_321" style="mask-type:alpha" maskUnits="userSpaceOnUse" x="0" y="0" width="60" height="60">
<rect width="60" height="60" fill="#FF0000"/>
</mask>
<g mask="url(#mask0_3_321)">
<path d="M30 0C33.1493 2.36988e-06 35.9561 4.36818 37.7891 11.1943C43.9123 7.66333 48.9869 6.56012 51.2139 8.78711C53.4403 11.0142 52.3353 16.0872 48.8047 22.21C55.6315 24.043 60 26.8505 60 30C60 33.1495 55.6314 35.9561 48.8047 37.7891C52.3357 43.9122 53.4405 48.9857 51.2139 51.2129C48.9868 53.4399 43.9125 52.3359 37.7891 48.8047C35.9561 55.6314 33.1495 60 30 60C26.8505 60 24.043 55.6315 22.21 48.8047C16.087 52.3354 11.014 53.4398 8.78711 51.2129C6.56031 48.9859 7.66352 43.9121 11.1943 37.7891C4.36818 35.9561 3.26907e-06 33.1493 0 30C3.75574e-08 26.8505 4.36849 24.043 11.1953 22.21C7.6647 16.0872 6.56043 11.0141 8.78711 8.78711C11.014 6.56026 16.0872 7.66387 22.21 11.1943C24.043 4.36803 26.8506 2.75326e-07 30 0Z" fill="#EFEFEF"/>
</g>
</svg>
