<svg width="80" height="80" viewBox="0 0 80 80" fill="none" xmlns="http://www.w3.org/2000/svg">
<mask id="mask0_86_559" style="mask-type:alpha" maskUnits="userSpaceOnUse" x="0" y="0" width="80" height="80">
<rect width="80" height="80" rx="12" fill="#F8F8F8"/>
</mask>
<g mask="url(#mask0_86_559)">
<path d="M40 10C47.7665 10 54.0625 16.296 54.0625 24.0625V25.9375H55.9375C63.704 25.9375 70 32.2335 70 40C70 47.7665 63.704 54.0625 55.9375 54.0625H54.0625V55.9375C54.0625 63.704 47.7665 70 40 70C32.2335 70 25.9375 63.704 25.9375 55.9375V54.0625H24.0625C16.296 54.0625 10 47.7665 10 40C10 32.2335 16.296 25.9375 24.0625 25.9375H25.9375V24.0625C25.9375 16.296 32.2335 10 40 10Z" fill="#EFEFEF"/>
</g>
</svg>
