<svg width="80" height="80" viewBox="0 0 80 80" fill="none" xmlns="http://www.w3.org/2000/svg">
<mask id="mask0_86_553" style="mask-type:alpha" maskUnits="userSpaceOnUse" x="0" y="0" width="80" height="80">
<path d="M0 12C0 5.37258 5.37258 0 12 0H68C74.6274 0 80 5.37258 80 12V68C80 74.6274 74.6274 80 68 80H12C5.37258 80 0 74.6274 0 68V12Z" fill="#F8F8F8"/>
</mask>
<g mask="url(#mask0_86_553)">
<path d="M40 10C55.464 10 68 22.536 68 38V45C68 58.8071 63.299 70 57.5 70C53.6796 70 50.3371 65.1418 48.5 57.8789C46.6629 65.1418 43.3204 70 39.5 70C35.6796 70 32.3371 65.1418 30.5 57.8789C28.6629 65.1418 25.3204 70 21.5 70C15.701 70 11 58.8071 11 45V38C11 22.536 23.536 10 39 10H40Z" fill="#EFEFEF"/>
</g>
</svg>
