<svg width="24" height="18" viewBox="0 0 24 18" fill="none" xmlns="http://www.w3.org/2000/svg">
<ellipse cx="6.52662" cy="8.89484" rx="6.15797" ry="8.55274" fill="white"/>
<path d="M12.6846 8.89484C12.6846 4.17129 9.92758 0.342102 6.52662 0.342102C3.12567 0.342102 0.368652 4.17129 0.368652 8.89484" stroke="#1A1A1A" stroke-width="0.684219" stroke-linecap="round"/>
<ellipse cx="17.4735" cy="8.89484" rx="6.15797" ry="8.55274" fill="white"/>
<path d="M23.6315 8.89484C23.6315 4.17129 20.8745 0.342102 17.4735 0.342102C14.0726 0.342102 11.3156 4.17129 11.3156 8.89484" stroke="#1A1A1A" stroke-width="0.684219" stroke-linecap="round"/>
<path d="M15.0001 5.3421C15.6167 5.3421 16.2012 5.49828 16.7228 5.77863C16.4063 6.08905 16.2101 6.52197 16.2101 7.00031C16.2103 7.94486 16.9764 8.71027 17.921 8.71027C18.2458 8.71019 18.5481 8.61755 18.8068 8.46027C18.9316 8.89575 19.0001 9.35991 19.0001 9.8421C19.0001 12.3274 17.2093 14.3421 15.0001 14.3421C12.791 14.3421 11.0001 12.3274 11.0001 9.8421C11.0001 7.35682 12.791 5.3421 15.0001 5.3421ZM13.2892 10.553C12.7224 10.553 12.2628 11.0126 12.2628 11.5794C12.263 12.1461 12.7225 12.6058 13.2892 12.6058C13.8557 12.6056 14.3154 12.1459 14.3156 11.5794C14.3156 11.0127 13.8558 10.5532 13.2892 10.553Z" fill="#1A1A1A"/>
<path d="M4.00012 5.3421C4.61674 5.3421 5.20119 5.49828 5.72278 5.77863C5.4063 6.08905 5.21008 6.52197 5.21008 7.00031C5.21026 7.94486 5.97642 8.71027 6.92102 8.71027C7.24584 8.71019 7.54812 8.61755 7.80676 8.46027C7.93157 8.89575 8.00012 9.35991 8.00012 9.8421C8.00012 12.3274 6.20926 14.3421 4.00012 14.3421C1.79098 14.3421 0.00012207 12.3274 0.00012207 9.8421C0.00012207 7.35682 1.79098 5.3421 4.00012 5.3421ZM2.28918 10.553C1.72236 10.553 1.26282 11.0126 1.26282 11.5794C1.26301 12.1461 1.72248 12.6058 2.28918 12.6058C2.85572 12.6056 3.31536 12.1459 3.31555 11.5794C3.31555 11.0127 2.85584 10.5532 2.28918 10.553Z" fill="#1A1A1A"/>
</svg>
