<svg width="80" height="80" viewBox="0 0 80 80" fill="none" xmlns="http://www.w3.org/2000/svg">
<mask id="mask0_86_625" style="mask-type:alpha" maskUnits="userSpaceOnUse" x="0" y="0" width="80" height="80">
<rect width="80" height="80" rx="12" fill="#F8F8F8"/>
</mask>
<g mask="url(#mask0_86_625)">
<ellipse cx="34.5266" cy="39.5527" rx="6.15797" ry="8.55274" fill="white"/>
<path d="M40.6846 39.5527C40.6846 34.8292 37.9276 31 34.5266 31C31.1257 31 28.3687 34.8292 28.3687 39.5527" stroke="#1A1A1A" stroke-width="0.684219" stroke-linecap="round"/>
<ellipse cx="45.4734" cy="39.5527" rx="6.15797" ry="8.55274" fill="white"/>
<path d="M51.6314 39.5527C51.6314 34.8292 48.8744 31 45.4734 31C42.0724 31 39.3154 34.8292 39.3154 39.5527" stroke="#1A1A1A" stroke-width="0.684219" stroke-linecap="round"/>
<path d="M43 36C43.6166 36 44.2011 36.1562 44.7227 36.4365C44.4062 36.7469 44.21 37.1799 44.21 37.6582C44.2101 38.6027 44.9763 39.3681 45.9209 39.3681C46.2457 39.3681 46.548 39.2754 46.8066 39.1181C46.9314 39.5536 47 40.0178 47 40.5C47 42.9853 45.2091 45 43 45C40.7909 45 39 42.9853 39 40.5C39 38.0147 40.7909 36 43 36ZM41.2891 41.2109C40.7222 41.2109 40.2627 41.6705 40.2627 42.2373C40.2629 42.804 40.7224 43.2637 41.2891 43.2637C41.8556 43.2635 42.3152 42.8038 42.3154 42.2373C42.3154 41.6706 41.8557 41.2111 41.2891 41.2109Z" fill="#1A1A1A"/>
<path d="M32 36C32.6166 36 33.2011 36.1562 33.7227 36.4365C33.4062 36.7469 33.21 37.1799 33.21 37.6582C33.2101 38.6027 33.9763 39.3681 34.9209 39.3681C35.2457 39.3681 35.548 39.2754 35.8066 39.1181C35.9314 39.5536 36 40.0178 36 40.5C36 42.9853 34.2091 45 32 45C29.7909 45 28 42.9853 28 40.5C28 38.0147 29.7909 36 32 36ZM30.2891 41.2109C29.7222 41.2109 29.2627 41.6705 29.2627 42.2373C29.2629 42.804 29.7224 43.2637 30.2891 43.2637C30.8556 43.2635 31.3152 42.8038 31.3154 42.2373C31.3154 41.6706 30.8557 41.2111 30.2891 41.2109Z" fill="#1A1A1A"/>
</g>
</svg>
