<svg width="80" height="80" viewBox="0 0 80 80" fill="none" xmlns="http://www.w3.org/2000/svg">
<mask id="mask0_86_556" style="mask-type:alpha" maskUnits="userSpaceOnUse" x="0" y="0" width="80" height="80">
<rect width="80" height="80" rx="12" fill="#F8F8F8"/>
</mask>
<g mask="url(#mask0_86_556)">
<path d="M39.5293 20C41.8308 20 43.8725 22.8562 45.148 27.2654C46.1088 30.5867 50.5411 32.3611 53.4508 30.4936C58.2601 27.4069 62.4944 26.3455 64.3096 28.1602C65.9802 29.8308 65.2137 33.5511 62.6738 37.8831C61.1016 40.5645 62.4879 44.2555 65.3129 45.5521C67.9471 46.7611 69.5293 48.3104 69.5293 50C69.5293 50.0013 69.5293 50.0026 69.5293 50.0039C69.5289 50.1692 69.5293 50.3347 69.5293 50.5C69.5293 55.1944 56.3217 59 40.0293 59C23.7369 59 10.5293 55.1944 10.5293 50.5C10.5293 50.4454 10.5277 50.3908 10.521 50.3366C10.5073 50.2251 10.5 50.1129 10.5 50C10.5 48.4109 11.8617 46.9457 14.1561 45.7709C16.8708 44.381 18.2134 40.8015 16.7234 38.1404C14.429 34.0422 13.802 30.528 15.4297 28.9004C17.1785 27.1516 21.1052 28.0056 25.594 30.7342C28.535 32.522 32.9265 30.7375 33.8632 27.4256C35.136 22.9255 37.2 20 39.5293 20Z" fill="#EFEFEF"/>
</g>
</svg>
