<svg width="60" height="60" viewBox="0 0 60 60" fill="none" xmlns="http://www.w3.org/2000/svg">
<mask id="mask0_3_338" style="mask-type:alpha" maskUnits="userSpaceOnUse" x="0" y="0" width="60" height="60">
<rect width="60" height="60" fill="#FF0000"/>
</mask>
<g mask="url(#mask0_3_338)">
<path d="M47.0146 2C54.1861 2 60 14.6296 60 30.209C60 45.7884 54.1861 58.418 47.0146 58.418C43.7602 58.4178 40.7855 55.8168 38.5068 51.5195C36.2281 55.8166 33.2544 58.418 30 58.418C26.7455 58.418 23.771 55.8168 21.4922 51.5195C19.2135 55.8165 16.2397 58.4178 12.9854 58.418C5.81389 58.418 0 45.7884 0 30.209C7.11797e-06 14.6296 5.8139 2 12.9854 2C16.2394 2.00015 19.2136 4.60093 21.4922 8.89746C23.7709 4.60064 26.7457 2 30 2C33.2542 2 36.2281 4.60088 38.5068 8.89746C40.7855 4.60069 43.7604 2.00015 47.0146 2Z" fill="#EFEFEF"/>
</g>
</svg>
