<svg width="80" height="80" viewBox="0 0 80 80" fill="none" xmlns="http://www.w3.org/2000/svg">
<mask id="mask0_86_624" style="mask-type:alpha" maskUnits="userSpaceOnUse" x="0" y="0" width="80" height="80">
<path d="M0 12C0 5.37258 5.37258 0 12 0H68C74.6274 0 80 5.37258 80 12V68C80 74.6274 74.6274 80 68 80H12C5.37258 80 0 74.6274 0 68V12Z" fill="#F8F8F8"/>
</mask>
<g mask="url(#mask0_86_624)">
<ellipse cx="34.5266" cy="39.5527" rx="6.15797" ry="8.55274" fill="white"/>
<path d="M40.6846 39.5527C40.6846 34.8292 37.9276 31 34.5266 31C31.1257 31 28.3687 34.8292 28.3687 39.5527" stroke="black" stroke-width="0.684219" stroke-linecap="round"/>
<path d="M33.8423 33.0527C35.0239 33.0527 36.0874 33.8441 36.8364 35.1093C35.9309 35.1533 35.2104 35.8999 35.2104 36.8163C35.2107 37.7607 35.976 38.5261 36.9204 38.5263C37.2689 38.5263 37.5925 38.421 37.8628 38.2421C37.9175 38.6655 37.9478 39.1037 37.9478 39.5527C37.9478 43.1425 36.1095 46.0525 33.8423 46.0527C31.575 46.0527 29.7368 43.1426 29.7368 39.5527C29.7368 35.9628 31.575 33.0527 33.8423 33.0527ZM32.1313 41.2636C31.5647 41.2638 31.105 41.7232 31.105 42.29C31.1052 42.8565 31.5648 43.3162 32.1313 43.3163C32.6981 43.3163 33.1575 42.8566 33.1577 42.29C33.1577 41.7231 32.6982 41.2636 32.1313 41.2636Z" fill="#1A1A1A"/>
<ellipse cx="45.4734" cy="39.5527" rx="6.15797" ry="8.55274" fill="white"/>
<path d="M51.6314 39.5527C51.6314 34.8292 48.8744 31 45.4734 31C42.0724 31 39.3154 34.8292 39.3154 39.5527" stroke="black" stroke-width="0.684219" stroke-linecap="round"/>
<path d="M44.79 33.0527C45.9717 33.0527 47.0352 33.8441 47.7842 35.1093C46.8786 35.1532 46.1582 35.8999 46.1582 36.8163C46.1584 37.7608 46.9237 38.5262 47.8682 38.5263C48.2167 38.5263 48.5402 38.4211 48.8105 38.2421C48.8653 38.6655 48.8955 39.1037 48.8955 39.5527C48.8955 43.1425 47.0573 46.0525 44.79 46.0527C42.5227 46.0527 40.6846 43.1425 40.6846 39.5527C40.6846 35.9628 42.5228 33.0527 44.79 33.0527ZM43.0791 41.2636C42.5123 41.2636 42.0527 41.7231 42.0527 42.29C42.0529 42.8566 42.5124 43.3163 43.0791 43.3163C43.6456 43.3161 44.1053 42.8565 44.1055 42.29C44.1055 41.7233 43.6458 41.2638 43.0791 41.2636Z" fill="#1A1A1A"/>
<path d="M48.8945 32.3684L50.263 31M50.6051 34.4211L52.3156 33.3948M51.2893 36.4737H52.9998" stroke="black" stroke-width="0.684219"/>
<path d="M31.1055 32.3684L29.737 31M29.3949 34.4211L27.6844 33.3948M28.7107 36.4737H27.0002" stroke="black" stroke-width="0.684219"/>
</g>
</svg>
