<svg width="26" height="22" viewBox="0 0 26 22" fill="none" xmlns="http://www.w3.org/2000/svg">
<path d="M14.0094 10.7277C14.0094 16.6535 10.8732 21.4565 7.00471 21.4565C3.13626 21.4565 0 16.6535 0 10.7277C0 9.29996 0.182037 7.93725 0.512544 6.69251C1.5539 2.76711 4.0688 0 7.00471 0C9.94063 0 12.4555 2.76711 13.4969 6.69251C13.8274 7.93827 14.0094 9.30097 14.0094 10.7277Z" fill="white"/>
<path d="M6.24312 3.34579C3.89092 3.34579 1.89974 5.71324 1.22957 8.97662L5.94414 10.4115L0.999756 11.9166C1.17569 16.1186 3.45567 19.444 6.24413 19.444C9.03259 19.444 11.4997 15.84 11.4997 11.3949C11.4997 6.94985 9.14649 3.34579 6.24413 3.34579H6.24312Z" fill="#1A1A1A"/>
<path d="M13.4968 6.69251H0.512451C1.5538 2.76711 4.0687 0 7.00462 0C9.94054 0 12.4554 2.76711 13.4968 6.69251Z" fill="#E6C58D"/>
<path d="M26.0004 10.7277C26.0004 16.6535 22.8641 21.4565 18.9957 21.4565C15.1272 21.4565 11.991 16.6535 11.991 10.7277C11.991 9.29996 12.173 7.93725 12.5035 6.69251C13.5449 2.76711 16.0598 0 18.9957 0C21.9316 0 24.4465 2.76711 25.4879 6.69251C25.8184 7.93827 26.0004 9.30097 26.0004 10.7277Z" fill="white"/>
<path d="M18.2328 3.34579C15.8806 3.34579 13.8894 5.71324 13.2192 8.97662L17.9338 10.4115L12.9894 11.9166C13.1653 16.1186 15.4453 19.444 18.2338 19.444C21.0222 19.444 23.4893 15.84 23.4893 11.3949C23.4893 6.94985 21.1361 3.34579 18.2338 3.34579H18.2328Z" fill="#1A1A1A"/>
<path d="M25.488 6.69251H12.5037C13.545 2.76711 16.0599 0 18.9958 0C21.9318 0 24.4467 2.76711 25.488 6.69251Z" fill="#E6C58D"/>
</svg>
