<svg width="26" height="18" viewBox="0 0 26 18" fill="none" xmlns="http://www.w3.org/2000/svg">
<ellipse cx="7.52638" cy="8.89484" rx="6.15797" ry="8.55274" fill="white"/>
<path d="M13.6843 8.89484C13.6843 4.17129 10.9273 0.342102 7.52638 0.342102C4.12543 0.342102 1.36841 4.17129 1.36841 8.89484" stroke="black" stroke-width="0.684219" stroke-linecap="round"/>
<path d="M6.84216 2.39478C8.02379 2.39484 9.08731 3.18623 9.8363 4.45142C8.93079 4.4954 8.21033 5.24203 8.21033 6.15845C8.21057 7.10285 8.97587 7.86825 9.92029 7.86841C10.2687 7.86841 10.5923 7.76315 10.8627 7.58423C10.9174 8.00759 10.9476 8.44579 10.9476 8.89478C10.9476 12.4846 9.10939 15.3946 6.84216 15.3948C4.57486 15.3948 2.73669 12.4847 2.73669 8.89478C2.73672 5.30492 4.57488 2.39478 6.84216 2.39478ZM5.13123 10.6057C4.56455 10.6059 4.10486 11.0654 4.10486 11.6321C4.10505 12.1986 4.56467 12.6583 5.13123 12.6584C5.69793 12.6584 6.1574 12.1987 6.15759 11.6321C6.15759 11.0653 5.69805 10.6057 5.13123 10.6057Z" fill="#1A1A1A"/>
<ellipse cx="18.4733" cy="8.89484" rx="6.15797" ry="8.55274" fill="white"/>
<path d="M24.6312 8.89484C24.6312 4.17129 21.8742 0.342102 18.4733 0.342102C15.0723 0.342102 12.3153 4.17129 12.3153 8.89484" stroke="black" stroke-width="0.684219" stroke-linecap="round"/>
<path d="M17.7898 2.39478C18.9714 2.39484 20.0349 3.18623 20.7839 4.45142C19.8783 4.49532 19.158 5.24198 19.158 6.15845C19.1582 7.1029 19.9234 7.86833 20.8679 7.86841C21.2164 7.86841 21.54 7.76319 21.8103 7.58423C21.8651 8.00759 21.8953 8.44579 21.8953 8.89478C21.8953 12.4846 20.057 15.3946 17.7898 15.3948C15.5225 15.3948 13.6843 12.4847 13.6843 8.89478C13.6844 5.30492 15.5225 2.39478 17.7898 2.39478ZM16.0789 10.6057C15.512 10.6057 15.0525 11.0653 15.0525 11.6321C15.0527 12.1987 15.5121 12.6584 16.0789 12.6584C16.6454 12.6583 17.105 12.1986 17.1052 11.6321C17.1052 11.0654 16.6455 10.6059 16.0789 10.6057Z" fill="#1A1A1A"/>
<path d="M21.8947 1.71054L23.2631 0.342102M23.6052 3.7632L25.3157 2.73687M24.2894 5.81585H26" stroke="black" stroke-width="0.684219"/>
<path d="M4.10535 1.71054L2.73691 0.342102M2.3948 3.7632L0.684252 2.73687M1.71058 5.81585H3.33786e-05" stroke="black" stroke-width="0.684219"/>
</svg>
