<svg width="80" height="80" viewBox="0 0 80 80" fill="none" xmlns="http://www.w3.org/2000/svg">
<mask id="mask0_86_558" style="mask-type:alpha" maskUnits="userSpaceOnUse" x="0" y="0" width="80" height="80">
<rect width="80" height="80" rx="12" fill="#F8F8F8"/>
</mask>
<g mask="url(#mask0_86_558)">
<path d="M57.0146 12C64.1861 12 70 24.6296 70 40.209C70 55.7884 64.1861 68.418 57.0146 68.418C53.7602 68.4178 50.7855 65.8168 48.5068 61.5195C46.2281 65.8166 43.2544 68.418 40 68.418C36.7455 68.418 33.771 65.8168 31.4922 61.5195C29.2135 65.8165 26.2397 68.4178 22.9854 68.418C15.8139 68.418 10 55.7884 10 40.209C10 24.6296 15.8139 12 22.9854 12C26.2394 12.0001 29.2136 14.6009 31.4922 18.8975C33.7709 14.6006 36.7457 12 40 12C43.2542 12 46.2281 14.6009 48.5068 18.8975C50.7855 14.6007 53.7604 12.0001 57.0146 12Z" fill="#EFEFEF"/>
</g>
</svg>
