<svg width="80" height="80" viewBox="0 0 80 80" fill="none" xmlns="http://www.w3.org/2000/svg">
<mask id="mask0_86_552" style="mask-type:alpha" maskUnits="userSpaceOnUse" x="0" y="0" width="80" height="80">
<rect width="80" height="80" rx="12" fill="#F8F8F8"/>
</mask>
<g mask="url(#mask0_86_552)">
<path d="M40 24.0322C49.0551 17.5022 57.6256 15.0715 61.2129 18.6582C63.6145 21.0598 63.3177 25.6948 60.9004 31.2139C66.5127 33.4071 70 36.4756 70 39.8721C69.9998 43.2683 66.5123 46.3351 60.9004 48.5283C63.3181 54.0479 63.6146 58.6832 61.2129 61.085C57.6255 64.6719 49.0555 62.2404 40 55.71C30.9445 62.2404 22.3745 64.6719 18.7871 61.085C16.3854 58.6833 16.681 54.0477 19.0986 48.5283C13.4873 46.3351 10.0002 43.2682 10 39.8721C10 36.4757 13.4868 33.4071 19.0986 31.2139C16.6815 25.695 16.3856 21.0597 18.7871 18.6582C22.3745 15.0715 30.9449 17.5022 40 24.0322Z" fill="#EFEFEF"/>
</g>
</svg>
