<svg width="29" height="16" viewBox="0 0 29 16" fill="none" xmlns="http://www.w3.org/2000/svg">
<path d="M15.2 7.99962C15.2 12.4184 11.7972 16 7.6 16C3.40279 16 0 12.4184 0 7.99962C0 6.93492 0.197507 5.91876 0.556102 4.99057C1.68595 2.06342 4.41458 0 7.6 0C10.7854 0 13.514 2.06342 14.6439 4.99057C15.0025 5.91952 15.2 6.93568 15.2 7.99962Z" fill="white"/>
<path d="M28.8 7.99962C28.8 12.4184 25.3972 16 21.2 16C17.0028 16 13.6 12.4184 13.6 7.99962C13.6 6.93492 13.7975 5.91876 14.1561 4.99057C15.2859 2.06342 18.0146 0 21.2 0C24.3854 0 27.114 2.06342 28.2439 4.99057C28.6025 5.91952 28.8 6.93568 28.8 7.99962Z" fill="white"/>
<path d="M21.2001 3.20001C22.2739 3.20011 23.2576 3.58527 24.0214 4.22443C23.3971 4.49478 22.96 5.11609 22.9598 5.83966C22.9598 6.81153 23.7478 7.60016 24.7196 7.6004C25.0374 7.6004 25.3353 7.5144 25.5927 7.367C25.5967 7.44418 25.5995 7.52222 25.5995 7.6004C25.5993 10.0301 23.6298 11.9996 21.2001 11.9998C18.7702 11.9998 16.7999 10.0303 16.7997 7.6004C16.7997 5.17035 18.77 3.20001 21.2001 3.20001ZM19.9999 7.99982C19.5582 7.99986 19.2003 8.358 19.2001 8.79962C19.2001 9.24142 19.5581 9.60036 19.9999 9.6004C20.4417 9.6004 20.7997 9.24145 20.7997 8.79962C20.7995 8.35797 20.4416 7.99982 19.9999 7.99982Z" fill="#1A1A1A"/>
<path d="M7.6001 3.20001C8.67393 3.20011 9.65758 3.58527 10.4214 4.22443C9.79713 4.49478 9.36 5.1161 9.35986 5.83966C9.35986 6.81168 10.1486 7.6004 11.1206 7.6004C11.4383 7.60032 11.7354 7.51431 11.9927 7.367C11.9967 7.44418 11.9995 7.52222 11.9995 7.6004C11.9993 10.0301 10.0298 11.9996 7.6001 11.9998C5.17017 11.9998 3.19992 10.0303 3.19971 7.6004C3.19971 5.17035 5.17004 3.20001 7.6001 3.20001ZM6.3999 7.99982C5.95826 7.99988 5.6003 8.35801 5.6001 8.79962C5.6001 9.24141 5.95813 9.60034 6.3999 9.6004C6.84173 9.6004 7.19971 9.24145 7.19971 8.79962C7.1995 8.35797 6.8416 7.99982 6.3999 7.99982Z" fill="#1A1A1A"/>
</svg>
