<svg width="60" height="60" viewBox="0 0 60 60" fill="none" xmlns="http://www.w3.org/2000/svg">
<mask id="mask0_3_308" style="mask-type:alpha" maskUnits="userSpaceOnUse" x="0" y="0" width="60" height="60">
<rect width="60" height="60" fill="#FF0000"/>
</mask>
<g mask="url(#mask0_3_308)">
<path d="M30 14.0322C39.0551 7.50219 47.6256 5.07147 51.2129 8.6582C53.6145 11.0598 53.3177 15.6948 50.9004 21.2139C56.5127 23.4071 60 26.4756 60 29.8721C59.9998 33.2683 56.5123 36.3351 50.9004 38.5283C53.3181 44.0479 53.6146 48.6832 51.2129 51.085C47.6255 54.6719 39.0555 52.2404 30 45.71C20.9445 52.2404 12.3745 54.6719 8.78711 51.085C6.38542 48.6833 6.68102 44.0477 9.09863 38.5283C3.48727 36.3351 0.000222407 33.2682 0 29.8721C1.48458e-07 26.4757 3.48683 23.4071 9.09863 21.2139C6.68148 15.695 6.38559 11.0597 8.78711 8.6582C12.3745 5.07149 20.9449 7.50219 30 14.0322Z" fill="#EFEFEF"/>
</g>
</svg>
