<svg width="76" height="28" viewBox="0 0 76 28" fill="none" xmlns="http://www.w3.org/2000/svg">
<mask id="mask0_27_15465" style="mask-type:alpha" maskUnits="userSpaceOnUse" x="0" y="0" width="76" height="28">
<rect width="76" height="28" fill="#D9D9D9"/>
</mask>
<g mask="url(#mask0_27_15465)">
<path d="M18.1086 10.3946C17.8885 11.9102 17.872 12.9179 17.8703 16.8378H22.5464V0.416992H17.8108L11.2368 16.8378H15.6117L18.1086 10.3946Z" fill="#1A1A1A"/>
<path d="M4.67606 16.2918C4.67606 13.8793 4.64628 12.0327 4.37822 10.3946L6.86021 16.8378H11.2202L4.67606 0.416992H0V16.8378H4.67606V16.2918Z" fill="#1A1A1A"/>
<path d="M31.1541 7.56506H26.5674V16.8378H31.1541V7.56506Z" fill="#1A1A1A"/>
<path d="M28.8948 5.24392C30.3235 5.24392 31.4844 4.08305 31.4844 2.62453C31.4844 1.16601 30.3235 0.0349121 28.8948 0.0349121C27.466 0.0349121 26.2754 1.16601 26.2754 2.62453C26.2754 4.08305 27.4363 5.24392 28.8948 5.24392Z" fill="#1A1A1A"/>
<path d="M40.6252 11.3773H43.453V7.56498H40.6252V2.94849H36.0384V7.56498H33.209V11.3773H36.0384V16.8377H40.6252V11.3773Z" fill="#1A1A1A"/>
<path d="M47.8557 5.24392C49.2845 5.24392 50.4453 4.08305 50.4453 2.62453C50.4453 1.16601 49.2845 0.0349121 47.8557 0.0349121C46.427 0.0349121 45.2363 1.16601 45.2363 2.62453C45.2363 4.08305 46.3972 5.24392 47.8557 5.24392Z" fill="#1A1A1A"/>
<path d="M50.0965 7.56506H45.5098V16.8378H50.0965V7.56506Z" fill="#1A1A1A"/>
<path d="M68.0245 7.56506H63.4378V15.3089C63.4378 15.9012 63.3898 16.4075 63.2905 16.8378H68.0245V7.56506Z" fill="#1A1A1A"/>
<path d="M57.9578 15.2493V7.56506H53.3711V16.8378H58.12C58.0108 16.3927 57.9578 15.8648 57.9578 15.2493Z" fill="#1A1A1A"/>
<path d="M76.0667 0H71.48V16.8378H76.0667V0Z" fill="#1A1A1A"/>
<path d="M43.7102 23.7732C43.2637 23.7732 43.0256 23.7435 42.5791 23.5946L41.835 27.6428C42.9065 27.9702 43.5018 28 44.1567 28C47.7286 28 49.7527 25.7675 49.7527 22.4338V19.9036H45.1687V21.8385C45.1687 23.1482 44.8413 23.7732 43.7102 23.7732Z" fill="#026FFD"/>
<path d="M76.0664 19.4989H0V23.9496H76.0664V19.4989Z" fill="#026FFD"/>
</g>
</svg>
