<svg width="24" height="24" viewBox="0 0 24 24" fill="none" xmlns="http://www.w3.org/2000/svg">
<mask id="mask0_42_7753" style="mask-type:alpha" maskUnits="userSpaceOnUse" x="0" y="0" width="24" height="24">
<rect x="0.5" y="0.5" width="23" height="23" fill="#D9D9D9" stroke="#026FFD"/>
</mask>
<g mask="url(#mask0_42_7753)">
<path d="M8.46973 4.46973C8.76262 4.17683 9.23738 4.17683 9.53027 4.46973C9.82308 4.76263 9.82314 5.23741 9.53027 5.53027L3.81055 11.25H22C22.4142 11.25 22.75 11.5858 22.75 12C22.75 12.4142 22.4142 12.75 22 12.75H3.81055L9.53027 18.4697C9.82308 18.7626 9.82314 19.2374 9.53027 19.5303C9.23741 19.8231 8.76262 19.8231 8.46973 19.5303L1.46973 12.5303C1.45147 12.512 1.43395 12.4932 1.41797 12.4736C1.40595 12.4589 1.3955 12.4431 1.38477 12.4277C1.35404 12.3836 1.32743 12.3364 1.30664 12.2861C1.30609 12.2848 1.30523 12.2836 1.30469 12.2822C1.28643 12.2372 1.27283 12.1907 1.26367 12.1436C1.26286 12.1394 1.26246 12.1351 1.26172 12.1309C1.25423 12.0883 1.25 12.0447 1.25 12C1.25 11.9547 1.25402 11.9103 1.26172 11.8672C1.26236 11.8636 1.26298 11.86 1.26367 11.8564C1.27282 11.8093 1.28644 11.7628 1.30469 11.7178L1.30859 11.708C1.32018 11.6806 1.33596 11.6555 1.35059 11.6299C1.35864 11.6158 1.36497 11.6006 1.37402 11.5869C1.38767 11.5663 1.40206 11.5459 1.41797 11.5264L1.46973 11.4697L8.46973 4.46973Z" fill="#282828"/>
</g>
</svg>
