<svg width="24" height="24" viewBox="0 0 24 24" fill="none" xmlns="http://www.w3.org/2000/svg">
<path d="M12 0C18.6274 0 24 5.37258 24 12C24 18.6274 18.6274 24 12 24C5.37258 24 0 18.6274 0 12C0 5.37258 5.37258 0 12 0ZM16.3535 7.64648C16.1583 7.45142 15.8417 7.45135 15.6465 7.64648L12 11.293L8.35352 7.64648C8.15827 7.45125 7.84175 7.45129 7.64648 7.64648C7.45124 7.84175 7.45123 8.15826 7.64648 8.35352L11.293 12L7.64648 15.6465C7.45126 15.8417 7.45133 16.1582 7.64648 16.3535C7.84175 16.5488 8.15825 16.5488 8.35352 16.3535L12 12.707L15.6465 16.3535C15.8417 16.5487 16.1583 16.5487 16.3535 16.3535C16.5488 16.1583 16.5487 15.8417 16.3535 15.6465L12.707 12L16.3535 8.35352C16.5487 8.15825 16.5488 7.84173 16.3535 7.64648Z" fill="#B6B6B6"/>
</svg>
