<svg width="32" height="32" viewBox="0 0 32 32" fill="none" xmlns="http://www.w3.org/2000/svg">
<path d="M22.6667 1.66675C26.9009 1.66675 30.3337 5.09956 30.3337 9.33374V22.6667C30.3337 26.9009 26.9009 30.3337 22.6667 30.3337H9.33374C5.09956 30.3337 1.66675 26.9009 1.66675 22.6667V9.33374C1.66675 5.09956 5.09956 1.66675 9.33374 1.66675H22.6667Z" fill="url(#paint0_linear_42_2840)"/>
<path d="M22.6667 1.66675V2.16675C26.6248 2.16675 29.8337 5.3757 29.8337 9.33374H30.3337H30.8337C30.8337 4.82341 27.1771 1.16675 22.6667 1.16675V1.66675ZM30.3337 9.33374H29.8337V22.6667H30.3337H30.8337V9.33374H30.3337ZM30.3337 22.6667H29.8337C29.8337 26.6248 26.6248 29.8337 22.6667 29.8337V30.3337V30.8337C27.1771 30.8337 30.8337 27.1771 30.8337 22.6667H30.3337ZM22.6667 30.3337V29.8337H9.33374V30.3337V30.8337H22.6667V30.3337ZM9.33374 30.3337V29.8337C5.3757 29.8337 2.16675 26.6248 2.16675 22.6667H1.66675H1.16675C1.16675 27.1771 4.82341 30.8337 9.33374 30.8337V30.3337ZM1.66675 22.6667H2.16675V9.33374H1.66675H1.16675V22.6667H1.66675ZM1.66675 9.33374H2.16675C2.16675 5.3757 5.3757 2.16675 9.33374 2.16675V1.66675V1.16675C4.82341 1.16675 1.16675 4.82341 1.16675 9.33374H1.66675ZM9.33374 1.66675V2.16675H22.6667V1.66675V1.16675H9.33374V1.66675Z" fill="url(#paint1_linear_42_2840)" fill-opacity="0.7"/>
<path d="M12.0002 16H20.0002" stroke="white" stroke-width="2" stroke-linecap="round" stroke-linejoin="round"/>
<path d="M16.0002 12L16.0002 20" stroke="white" stroke-width="2" stroke-linecap="round" stroke-linejoin="round"/>
<defs>
<linearGradient id="paint0_linear_42_2840" x1="12.6053" y1="9.44249" x2="32.4031" y2="28.2605" gradientUnits="userSpaceOnUse">
<stop stop-color="#026FFD"/>
<stop offset="0.505208" stop-color="#4998FF"/>
<stop offset="1" stop-color="#6BABFF"/>
</linearGradient>
<linearGradient id="paint1_linear_42_2840" x1="2.38342" y1="5.9668" x2="27.467" y2="27.467" gradientUnits="userSpaceOnUse">
<stop stop-color="white" stop-opacity="0.15"/>
<stop offset="1" stop-color="white" stop-opacity="0.44"/>
</linearGradient>
</defs>
</svg>
