<svg width="18" height="18" viewBox="0 0 18 18" fill="none" xmlns="http://www.w3.org/2000/svg">
<path d="M17 9C17 4.58172 13.4183 1 9 1C4.58172 1 1 4.58172 1 9C1 13.4183 4.58172 17 9 17V18C4.02944 18 0 13.9706 0 9C0 4.02944 4.02944 0 9 0C13.9706 0 18 4.02944 18 9C18 13.9706 13.9706 18 9 18V17C13.4183 17 17 13.4183 17 9Z" fill="#B6B6B6"/>
<path d="M12.6445 6.64852C12.8387 6.45241 13.1553 6.45055 13.3515 6.64461C13.5476 6.83885 13.5495 7.15543 13.3554 7.35164L8.04782 12.711L4.6445 9.27547C4.45017 9.07928 4.45221 8.76179 4.64841 8.56746C4.84463 8.37351 5.16124 8.3753 5.35544 8.57137L8.04684 11.2891L12.6445 6.64852Z" fill="#B6B6B6"/>
</svg>
