<svg width="18" height="18" viewBox="0 0 18 18" fill="none" xmlns="http://www.w3.org/2000/svg">
<path d="M9 0C13.9706 0 18 4.02944 18 9C18 13.9706 13.9706 18 9 18C4.02944 18 0 13.9706 0 9C0 4.02944 4.02944 0 9 0ZM13.3516 6.64453C13.1554 6.45051 12.8388 6.4524 12.6445 6.64844L8.04688 11.2891L5.35547 8.57129C5.16128 8.37526 4.84466 8.3735 4.64844 8.56738C4.45225 8.7617 4.45023 9.07919 4.64453 9.27539L8.04785 12.7109L13.3555 7.35156C13.5495 7.15534 13.5477 6.83875 13.3516 6.64453Z" fill="#026FFD"/>
</svg>
