<svg width="32" height="32" viewBox="0 0 32 32" fill="none" xmlns="http://www.w3.org/2000/svg">
<path d="M3.33325 14.5845C3.33325 12.9523 4.08069 11.4099 5.36182 10.3985L12.6952 4.60903C14.6328 3.0793 17.367 3.07931 19.3047 4.60903L26.638 10.3985C27.9191 11.4099 28.6666 12.9523 28.6666 14.5845V23.3333C28.6666 26.2789 26.2788 28.6667 23.3333 28.6667H21.3333C20.5969 28.6667 19.9999 28.0697 19.9999 27.3333V23.3333C19.9999 21.8606 18.806 20.6667 17.3333 20.6667H14.6666C13.1938 20.6667 11.9999 21.8606 11.9999 23.3333V27.3333C11.9999 28.0697 11.403 28.6667 10.6666 28.6667H8.66658C5.72107 28.6667 3.33325 26.2789 3.33325 23.3333L3.33325 14.5845Z" fill="url(#paint0_linear_42_2826)" stroke="url(#paint1_linear_42_2826)" stroke-opacity="0.7"/>
<defs>
<linearGradient id="paint0_linear_42_2826" x1="12.9998" y1="9.23317" x2="31.3443" y2="25.7979" gradientUnits="userSpaceOnUse">
<stop stop-color="#026FFD"/>
<stop offset="0.505208" stop-color="#4998FF"/>
<stop offset="1" stop-color="#6BABFF"/>
</linearGradient>
<linearGradient id="paint1_linear_42_2826" x1="3.96659" y1="6" x2="27.088" y2="24.8275" gradientUnits="userSpaceOnUse">
<stop stop-color="white" stop-opacity="0.15"/>
<stop offset="1" stop-color="white" stop-opacity="0.44"/>
</linearGradient>
</defs>
</svg>
