<svg width="32" height="32" viewBox="0 0 32 32" fill="none" xmlns="http://www.w3.org/2000/svg">
<path d="M18.3366 4.22966C18.3337 4.12803 18.2229 4.06186 18.1356 4.114C13.5151 6.87435 13.6007 13.7988 13.6558 15.0535C13.66 15.1481 13.5704 15.2149 13.4847 15.1745C12.951 14.9231 11.4215 13.9764 11.3371 11.3537C11.3338 11.252 11.224 11.1865 11.1364 11.2385C8.46113 12.824 6.66675 15.7525 6.66675 19C6.66675 23.9706 10.8454 28 16.0001 28C21.1547 28 25.3334 23.9706 25.3334 19C25.3334 11.7788 18.5071 10.2259 18.3366 4.22966Z" fill="#EFEFEF" stroke="url(#paint0_linear_42_3265)" stroke-opacity="0.7"/>
<defs>
<linearGradient id="paint0_linear_42_3265" x1="7.13341" y1="7.6" x2="26.7488" y2="20.6769" gradientUnits="userSpaceOnUse">
<stop stop-color="white" stop-opacity="0.15"/>
<stop offset="1" stop-color="white" stop-opacity="0.44"/>
</linearGradient>
</defs>
</svg>
