<svg width="32" height="32" viewBox="0 0 32 32" fill="none" xmlns="http://www.w3.org/2000/svg">
<path d="M18.726 2.26793C18.7226 2.14937 18.5932 2.07217 18.4914 2.133C13.1008 5.3534 13.2007 13.4319 13.265 14.8957C13.2699 15.0061 13.1654 15.084 13.0654 15.0369C12.4427 14.7437 10.6584 13.6391 10.5598 10.5794C10.556 10.4606 10.4279 10.3843 10.3257 10.4449C7.20453 12.2947 5.11108 15.7113 5.11108 19.5C5.11108 25.299 9.9862 30 16 30C22.0137 30 26.8889 25.299 26.8889 19.5C26.8888 11.0753 18.9249 9.26351 18.726 2.26793Z" fill="url(#paint0_linear_42_2844)" stroke="url(#paint1_linear_42_2844)" stroke-opacity="0.7" stroke-width="1.16667"/>
<defs>
<linearGradient id="paint0_linear_42_2844" x1="13.4209" y1="9.59482" x2="31.932" y2="23.2798" gradientUnits="userSpaceOnUse">
<stop stop-color="#026FFD"/>
<stop offset="0.505208" stop-color="#4998FF"/>
<stop offset="1" stop-color="#6BABFF"/>
</linearGradient>
<linearGradient id="paint1_linear_42_2844" x1="5.65553" y1="6.2" x2="28.5401" y2="21.4564" gradientUnits="userSpaceOnUse">
<stop stop-color="white" stop-opacity="0.15"/>
<stop offset="1" stop-color="white" stop-opacity="0.44"/>
</linearGradient>
</defs>
</svg>
