<svg width="16" height="16" viewBox="0 0 16 16" fill="none" xmlns="http://www.w3.org/2000/svg">
<path d="M15.9945 8.29637C15.9383 9.81342 15.4515 11.2832 14.5912 12.5339C13.7308 13.7847 12.5323 14.7648 11.1357 15.3598L10.195 13.1519C11.1726 12.7354 12.0116 12.0493 12.6138 11.1737C13.2161 10.2982 13.5568 9.26939 13.5962 8.20746L15.9945 8.29637Z" fill="#464646"/>
<path d="M10.348 15.6477C8.89673 16.0932 7.34868 16.1167 5.88462 15.7153C4.42056 15.3138 3.10094 14.5041 2.07989 13.3807L3.85592 11.7665C4.57066 12.5529 5.49439 13.1197 6.51924 13.4007C7.54408 13.6817 8.62771 13.6653 9.64358 13.3534L10.348 15.6477Z" fill="#464646"/>
<path d="M1.49252 12.6533C0.609516 11.4184 0.0960917 9.95776 0.012219 8.44199C-0.0716536 6.92622 0.277488 5.41787 1.01886 4.09312L3.1132 5.26518C2.59424 6.19251 2.34984 7.24835 2.40855 8.30939C2.46726 9.37043 2.82666 10.3929 3.44477 11.2573L1.49252 12.6533Z" fill="#464646"/>
<path d="M1.54277 3.27727C2.43896 2.05194 3.6653 1.10689 5.07854 0.552511C6.49179 -0.00186838 8.0336 -0.142694 9.52389 0.146482L9.06673 2.50254C8.02352 2.30011 6.94425 2.39869 5.95498 2.78676C4.96571 3.17482 4.10727 3.83636 3.47994 4.69409L1.54277 3.27727Z" fill="#464646"/>
<path d="M10.677 0.461177C12.1075 0.969162 13.3641 1.8737 14.2997 3.06915C15.2354 4.2646 15.8117 5.7016 15.9611 7.21231L13.5728 7.44862C13.4682 6.39112 13.0648 5.38522 12.4098 4.5484C11.7548 3.71159 10.8753 3.07841 9.87388 2.72282L10.677 0.461177Z" fill="#464646"/>
<path d="M10.5 8.9C10.5 10.0598 9.38071 11 8 11C6.61929 11 5.5 10.0598 5.5 8.9C5.5 7.7402 8 4 8 4C8 4 10.5 7.7402 10.5 8.9Z" fill="#464646"/>
</svg>
