<svg width="16" height="16" viewBox="0 0 16 16" fill="none" xmlns="http://www.w3.org/2000/svg">
<path d="M8.00977 1.33984C8.00988 1.33997 8.01013 1.34093 8.01074 1.3418C8.01139 1.34274 8.01245 1.34429 8.01367 1.34668L9.72168 4.69336C9.89832 5.03924 10.2297 5.27982 10.6133 5.34082L14.3232 5.93066C14.3261 5.93112 14.328 5.93228 14.3291 5.93262H14.3311C14.3313 5.93288 14.3341 5.93568 14.3359 5.94141C14.3377 5.94695 14.337 5.95064 14.3369 5.95117L14.3359 5.95215C14.3353 5.95303 14.3341 5.95498 14.332 5.95703L11.6768 8.61523C11.4024 8.89 11.2756 9.27953 11.3359 9.66309L11.9219 13.374V13.3818C11.9218 13.3821 11.9209 13.3861 11.916 13.3896C11.9111 13.3933 11.9065 13.3926 11.9062 13.3926H11.9053C11.9042 13.3922 11.902 13.392 11.8994 13.3906L8.55078 11.6875C8.20457 11.5114 7.79543 11.5114 7.44922 11.6875L4.10059 13.3906C4.09795 13.392 4.0958 13.3922 4.09473 13.3926C4.09366 13.3929 4.0929 13.3926 4.09277 13.3926C4.09144 13.3923 4.08778 13.3924 4.08398 13.3896C4.07912 13.3861 4.07823 13.3821 4.07812 13.3818V13.374L4.66406 9.66309C4.7244 9.27953 4.5976 8.89 4.32324 8.61523L1.66797 5.95703C1.66593 5.95498 1.66472 5.95303 1.66406 5.95215L1.66309 5.95117L1.66406 5.94141C1.66592 5.93568 1.66866 5.93288 1.66895 5.93262H1.6709C1.67199 5.93228 1.67389 5.93112 1.67676 5.93066L5.38672 5.34082C5.77028 5.27982 6.10168 5.03924 6.27832 4.69336L7.98633 1.34668C7.98755 1.34429 7.98861 1.34274 7.98926 1.3418C7.98987 1.34093 7.99012 1.33997 7.99023 1.33984C7.9908 1.33955 7.99424 1.33887 8 1.33887C8.00576 1.33887 8.0092 1.33955 8.00977 1.33984Z" stroke="#464646" stroke-width="1.2"/>
</svg>
