<svg width="16" height="16" viewBox="0 0 16 16" fill="none" xmlns="http://www.w3.org/2000/svg">
<path d="M5.49315 2.71021L9.47495 13.2896H8.18159L7.06262 10.296H2.45593L1.29336 13.2896H0L4.05447 2.71021H5.49315ZM2.8483 9.23513H6.65572L4.78107 4.25061L2.8483 9.23513Z" fill="#707070"/>
<path d="M12.6867 13.2893C10.8121 13.2893 9.4751 11.8652 9.4751 9.87429C9.4751 7.86886 10.8121 6.44471 12.6867 6.44471C13.4133 6.44471 14.2126 6.80801 14.7939 7.59275V6.43018H16V13.2022H14.7939V12.1122C14.198 12.9696 13.4133 13.2893 12.6867 13.2893ZM12.7303 12.2285C13.8202 12.2285 14.7939 11.2403 14.8084 9.87429C14.7939 8.50827 13.8202 7.50555 12.7303 7.50555C11.5241 7.50555 10.6813 8.46468 10.6813 9.87429C10.6813 11.2548 11.5241 12.2285 12.7303 12.2285Z" fill="#707070"/>
</svg>
